<svg xmlns="http://www.w3.org/2000/svg" width="800" height="545" viewBox="0 0 800 545" fill="none"><path d="M710.749 356.278V309.154H549.771V544.771H713.98V497.647H602.06V450.188H700.174V403.064H602.06V356.278H710.749Z" fill="#00FF74"></path><path d="M800 544.771V309.154H747.711V544.771H800Z" fill="#00FF74"></path><path fill-rule="evenodd" clip-rule="evenodd" d="M375.428 233.736L375.427 145.414L340.642 112.133L340.642 82.7678C345.003 82.3194 348.4 78.7885 348.4 74.4968C348.4 69.901 344.504 66.1777 339.702 66.1777C334.899 66.1777 331.008 69.901 331.008 74.4968C331.008 78.7889 334.402 82.32 338.762 82.7679V112.875L373.548 146.161L373.548 233.736H370.669V230.227H369.251V233.736H358.674V232.59H358.505L358.505 158.003L323.724 124.722L323.724 99.4148C328.094 98.9746 331.498 95.4358 331.498 91.1417C331.498 86.5461 327.607 82.8182 322.804 82.8182C318.001 82.8182 314.11 86.5461 314.11 91.1417C314.11 95.423 317.493 98.9535 321.844 99.4108V125.469L356.625 158.749L356.625 232.59H347.333V233.736H341.819V207.733H334.7V233.736H324.942V224.72H322.148V231.758H320.966V222.773H318.31V212.521H309.788V231.758H307.597V201.322H299.075V231.758H296.28V221.799H291.295V208.395H274.389V221.799H269.266V227.44H264.09V178.333H250.056V230.077H245.511V233.736H244.583V310.795H230.181V316.062H206.646H198.626H198.626V324.209H198.626V341.467H173.036V344.221H126.271L91.3577 308.752H70.1978C69.5712 304.481 65.9453 301.204 61.5663 301.204C56.7466 301.204 52.8391 305.173 52.8391 310.07C52.8391 314.971 56.7466 318.941 61.5663 318.941C65.9454 318.941 69.5713 315.664 70.1978 311.389H90.2796L125.193 346.858H173.036V349.615H206.062V349.613H206.646V324.209H230.181V329.483H244.583V370.706H217.263V373.461H101.736L76.3784 347.7H17.3588C16.7327 343.425 13.1065 340.147 8.72721 340.147C3.90749 340.147 0 344.117 0 349.018C0 353.915 3.90749 357.884 8.72721 357.884C13.1059 357.884 16.7317 354.608 17.3586 350.337H75.3003L100.662 376.098H217.263V378.853H244.583V385.082H233.775V387.843H82.4682C81.8436 383.569 78.2166 380.29 73.8361 380.29C69.0115 380.29 65.104 384.26 65.104 389.156C65.104 394.058 69.0115 398.027 73.8361 398.027C78.2152 398.027 81.8412 394.75 82.4676 390.475H233.775V393.235H244.583V399.467H217.263V402.221H100.662L75.3003 427.982H17.359C16.7333 423.709 13.1069 420.431 8.72721 420.431C3.90749 420.431 0 424.401 0 429.297C0 434.199 3.90749 438.168 8.72721 438.168C13.1055 438.168 16.731 434.892 17.3584 430.618H76.3784L101.736 404.857H217.263V407.614H244.583V448.835H230.181V454.104H206.646V428.705H206.062H198.626H173.036V431.46H125.193L90.2796 466.929H70.1982C69.5727 462.653 65.9462 459.375 61.5663 459.375C56.7466 459.375 52.8391 463.344 52.8391 468.246C52.8391 473.142 56.7466 477.112 61.5663 477.112C65.9445 477.112 69.5698 473.836 70.1974 469.566H91.3577L126.271 434.097H173.036V436.853H198.626V454.104H198.626V462.257H230.181V467.524H244.583V544.583H549.771V233.736H548.443V208.856H523.412L501.341 195.545V207.348L481.639 195.545V224.649H471.142L459.875 217.902V223.885L450.57 218.35V212.306H449.229V210.89C449.229 210.026 448.553 209.325 447.716 209.325C446.881 209.325 446.204 210.026 446.204 210.89V212.306H445.771V210.89C445.771 210.035 445.107 209.339 444.284 209.325L444.284 158.749L479.07 125.469V99.449C483.655 99.2163 487.296 95.5829 487.296 91.1417C487.296 86.5461 483.405 82.8182 478.602 82.8182C473.799 82.8182 469.903 86.5461 469.903 91.1418C469.903 95.2735 473.058 98.706 477.19 99.3517L477.19 124.722L442.405 158.003L442.405 212.306H441.405V222.823H439.089V203.146H437.813V201.44H438.187V200.036H436.364V201.44H436.766V203.146H435.461V222.823H434.503L434.404 222.934L431.219 226.225L429.884 227.604V225.858H428.782V219.327H430.027V220.081H430.441V210.871H430.027V211.667H428.782V212.191H430.027V212.856H428.782V213.38H430.027V214.045H428.782V214.57H430.027V215.235H428.782V215.759H430.027V216.424H428.782V216.948H430.027V217.614H428.782V218.137H430.027V218.803H428.782L428.781 219.148V209.815H427.367L427.367 146.161L462.147 112.875L462.147 82.7677C466.507 82.3188 469.9 78.7881 469.9 74.4968C469.9 69.901 466.009 66.1777 461.206 66.1777C456.403 66.1778 452.512 69.9011 452.512 74.4968C452.512 78.7892 455.906 82.3206 460.268 82.7681V112.133L425.487 145.414L425.487 202.997H416.199L416.199 135.597L441.463 111.422L441.463 49.3048C445.539 48.6147 448.635 45.2108 448.635 41.1135C448.635 36.5177 444.739 32.7944 439.937 32.7944C435.134 32.7944 431.243 36.5177 431.243 41.1135C431.243 45.2104 434.335 48.614 438.409 49.3046L438.409 108.081L415.143 85.8189L415.143 16.5955C419.504 16.1465 422.901 12.6116 422.901 8.31999C422.901 3.72431 419.005 0.000927625 414.202 0.000930364C409.4 0.000933103 405.509 3.72432 405.509 8.32C405.509 12.6121 408.902 16.1473 413.263 16.5957L413.263 86.5653L438.192 110.419L413.145 134.387L413.145 202.997H412.156V168.817H403.539L402.101 155.796V146.861H402.898V141.583H402.101V110.686C406.175 109.996 409.268 106.592 409.268 102.494C409.268 97.8987 405.377 94.1754 400.574 94.1754C395.771 94.1754 391.875 97.8987 391.875 102.494C391.875 106.591 394.971 109.995 399.046 110.686V141.583H397.913V146.861H399.046V153.343H398.981L397.475 168.817H388.655V212.208H387.762L387.762 134.388L362.717 110.423L387.645 86.5653L387.645 16.5948C392.006 16.1469 395.401 12.6115 395.401 8.31906C395.401 3.72338 391.51 -2.73906e-06 386.707 0C381.904 2.73907e-06 378.013 3.72339 378.013 8.31907C378.013 12.6104 381.406 16.145 385.765 16.5945L385.765 85.8188L362.498 108.087L362.498 49.305C366.572 48.6152 369.666 45.2111 369.666 41.1135C369.666 36.5177 365.775 32.7944 360.972 32.7944C356.169 32.7944 352.278 36.5177 352.278 41.1135C352.278 45.2101 355.37 48.6135 359.443 49.3045L359.443 111.423L384.707 135.598L384.707 212.208H383.245L383.245 233.736H375.428ZM360.972 35.9422C357.992 35.9422 355.567 38.2625 355.567 41.1135C355.567 43.9644 357.992 46.2849 360.972 46.2849C363.951 46.2848 366.376 43.9644 366.376 41.1135C366.376 38.2625 363.951 35.9422 360.972 35.9422ZM400.574 97.3231C397.59 97.3231 395.165 99.6435 395.165 102.494C395.165 105.345 397.59 107.666 400.574 107.666C403.553 107.666 405.978 105.345 405.978 102.494C405.978 99.6435 403.553 97.3231 400.574 97.3231ZM455.801 74.4968C455.801 71.6458 458.226 69.3256 461.206 69.3256C464.185 69.3256 466.61 71.6458 466.61 74.4968C466.61 77.3478 464.185 79.6682 461.206 79.6682C458.226 79.6682 455.801 77.3478 455.801 74.4968ZM434.532 41.1135C434.532 38.2625 436.957 35.9422 439.937 35.9422C442.916 35.9422 445.341 38.2625 445.341 41.1135C445.341 43.9644 442.916 46.2848 439.937 46.2849C436.957 46.2849 434.532 43.9645 434.532 41.1135ZM473.193 91.1417C473.193 88.2863 475.618 85.9659 478.602 85.9659C481.581 85.9659 484.006 88.2863 484.006 91.1417C484.006 93.9927 481.581 96.3131 478.602 96.3131C475.618 96.3131 473.193 93.9927 473.193 91.1417ZM322.804 85.9659C319.824 85.9659 317.399 88.2863 317.399 91.1417C317.399 93.9927 319.824 96.3131 322.804 96.3131C325.783 96.3131 328.208 93.9927 328.208 91.1417C328.208 88.2863 325.783 85.9659 322.804 85.9659ZM408.798 8.32009C408.798 5.4691 411.223 3.14876 414.202 3.14876C417.182 3.14876 419.607 5.4691 419.607 8.32008C419.607 11.1755 417.182 13.4959 414.202 13.4959C411.223 13.4959 408.798 11.1755 408.798 8.32009ZM339.702 79.6682C336.722 79.6682 334.297 77.3478 334.297 74.4968C334.297 71.6458 336.722 69.3256 339.702 69.3256C342.686 69.3256 345.111 71.6458 345.111 74.4968C345.111 77.3478 342.686 79.6682 339.702 79.6682ZM381.302 8.31916C381.302 11.1746 383.727 13.495 386.707 13.495C389.686 13.495 392.111 11.1746 392.111 8.31915C392.111 5.46817 389.686 3.14783 386.707 3.14783C383.727 3.14783 381.302 5.46817 381.302 8.31916ZM186.125 364.115H111.985L77.0714 328.646H46.3723C45.7453 332.917 42.1196 336.193 37.741 336.193C32.9213 336.193 29.0138 332.224 29.0138 327.327C29.0138 322.431 32.9213 318.461 37.741 318.461C42.12 318.461 45.7459 321.738 46.3725 326.009H78.1446L113.058 361.479H186.125V358.721H219.151V366.868H186.125V364.115ZM27.9407 414.382L29.2725 415.659C30.6968 417.025 32.9378 416.94 34.2754 415.47C35.6102 413.998 35.5364 411.69 34.1121 410.324L32.2176 408.509C22.1245 398.262 21.6156 381.588 31.1273 370.726C31.1316 370.72 31.1364 370.715 31.1418 370.71C31.1519 370.7 31.1638 370.69 31.1768 370.68L33.4155 368.208C34.7481 366.741 34.6591 364.438 33.2269 363.065C31.792 361.688 29.553 361.76 28.2256 363.227L25.9819 365.699C25.9494 365.735 25.924 365.773 25.8987 365.811C25.8779 365.842 25.8572 365.873 25.8329 365.902C14.1215 379.332 14.4675 399.763 26.3856 412.778C26.5255 412.984 26.6855 413.178 26.8679 413.355L27.9247 414.364C27.9257 414.367 27.9272 414.37 27.9291 414.372L27.9313 414.374C27.9327 414.376 27.9341 414.377 27.9355 414.378L27.9358 414.378L27.9382 414.38L27.9407 414.382ZM36.5568 404.535C36.4834 404.466 36.4156 404.395 36.3482 404.323L36.3477 404.323L36.3223 404.296L36.2814 404.253L36.0087 403.976C35.969 403.94 35.9371 403.9 35.9017 403.856L35.9015 403.856L35.873 403.82C28.3162 395.844 28.1736 383.228 35.5475 375.095L36.4145 374.141L37.6115 372.821C39.0695 371.213 41.5331 371.133 43.1001 372.636C44.6722 374.141 44.7614 376.675 43.3033 378.28L41.2394 380.557C36.5527 385.729 36.8307 393.86 41.8568 398.684L43.407 400.219C44.9555 401.704 45.0388 404.214 43.5856 405.814C42.8862 406.588 41.9328 407.035 40.9042 407.074C39.8806 407.113 38.8993 406.741 38.1513 406.018L36.5568 404.535ZM44.7639 389.001C44.8841 392.517 47.7566 395.272 51.1743 395.15C54.5921 395.028 57.2693 392.075 57.1491 388.56C57.0289 385.044 54.1565 382.289 50.7387 382.411C47.3209 382.533 44.6437 385.486 44.7639 389.001ZM43.1656 327.327C43.1656 324.289 40.7314 321.816 37.741 321.816C34.7506 321.816 32.3163 324.289 32.3163 327.327C32.3163 330.365 34.7506 332.838 37.741 332.838C40.7314 332.838 43.1656 330.365 43.1656 327.327ZM186.125 414.202H111.985L77.0714 449.671H46.3722C45.7448 445.401 42.1193 442.125 37.741 442.125C32.9213 442.125 29.0138 446.095 29.0138 450.991C29.0138 455.887 32.9213 459.857 37.741 459.857C42.1203 459.857 45.7465 456.58 46.3726 452.308H78.1446L113.058 416.838H186.125V419.595H219.151V411.448H186.125V414.202ZM32.3163 450.991C32.3163 447.953 34.7506 445.48 37.741 445.48C40.7314 445.48 43.1656 447.953 43.1656 450.991C43.1656 454.029 40.7314 456.502 37.741 456.502C34.7506 456.502 32.3163 454.029 32.3163 450.991ZM524.827 224.725V233.736H521.222V228.659H517.141V233.736H513.084V224.725H524.827ZM509.17 224.725V233.736H505.428V228.659H501.421V233.736H497.427V224.725H509.17ZM471.864 232.691V233.736H465.869V232.691H471.864ZM463.871 232.691V233.736H457.877V232.691H463.871ZM529.122 169.513L528.725 173.447H541.05L540.653 169.513H529.122ZM527.939 181.316H541.722L541.328 177.382H528.332L527.939 181.316ZM256.55 181.273H252.633V184.369H256.55V181.273ZM258.508 181.273H260.467V184.369H258.508V181.273ZM527.153 189.185H542.73L542.331 185.25H527.552L527.153 189.185ZM256.55 189.53H252.633V192.626H256.55V189.53ZM543.402 197.053H526.367L526.763 193.119H543.006L543.402 197.053ZM252.633 197.787H256.55V200.883H252.633V197.787ZM260.467 197.787H258.508V200.883H260.467V197.787ZM544.074 204.922H525.581L525.974 200.988H543.681L544.074 204.922ZM473.927 204.709L473.718 206.703H480.224L480.014 204.709H473.927ZM256.55 206.044H252.633V209.14H256.55V206.044ZM473.319 210.691H480.56L480.353 208.697H473.525L473.319 210.691ZM472.92 214.679H480.896L480.692 212.685H473.124L472.92 214.679ZM252.633 214.301H256.55V217.397H252.633V214.301ZM260.467 214.301H258.508V217.397H260.467V214.301ZM481.232 218.667H472.521L472.723 216.673H481.029L481.232 218.667ZM481.568 222.655H472.122L472.323 220.661H481.367L481.568 222.655ZM252.633 222.558H256.55V225.654H252.633V222.558ZM252.633 227.44H256.55V226.686H252.633V227.44ZM258.508 227.44H260.467V226.686H258.508V227.44ZM504.743 279.599H289.611V498.72H504.743V279.599ZM492.988 291.601H302.872V485.243H492.988V291.601ZM357.89 337.898H435.791C445.279 337.898 453.042 345.668 453.042 355.165V425.312C453.042 434.81 445.279 442.58 435.791 442.58H357.89C348.402 442.58 340.639 434.81 340.639 425.312V355.165C340.639 345.668 348.402 337.898 357.89 337.898ZM398.128 352.275C395.812 352.275 393.934 354.155 393.934 356.473C393.934 358.791 395.812 360.67 398.128 360.67C400.443 360.67 402.321 358.791 402.321 356.473C402.321 354.155 400.443 352.275 398.128 352.275ZM390.495 356.473C390.495 352.255 393.912 348.833 398.128 348.833C402.343 348.833 405.76 352.255 405.76 356.473C405.76 360.1 403.234 363.138 399.846 363.918V414.76C403.234 415.54 405.76 418.578 405.76 422.205C405.76 426.423 402.343 429.845 398.128 429.845C393.912 429.845 390.495 426.423 390.495 422.205C390.495 418.579 393.021 415.542 396.407 414.76V363.917C393.021 363.136 390.495 360.1 390.495 356.473ZM397.885 418.014C395.682 418.14 393.934 419.969 393.934 422.205C393.934 424.523 395.812 426.403 398.128 426.403C400.443 426.403 402.321 424.523 402.321 422.205C402.321 419.968 400.572 418.139 398.368 418.014C398.289 418.025 398.209 418.031 398.127 418.031C398.045 418.031 397.964 418.026 397.885 418.014ZM373.969 352.279C371.906 352.279 370.232 353.954 370.232 356.018C370.232 358.083 371.906 359.757 373.969 359.757C376.032 359.757 377.705 358.083 377.705 356.018C377.705 353.954 376.032 352.279 373.969 352.279ZM366.793 356.018C366.793 352.052 370.007 348.837 373.969 348.837C377.931 348.837 381.144 352.052 381.144 356.018C381.144 359.984 377.931 363.199 373.969 363.199C372.508 363.199 371.148 362.762 370.015 362.011L358.638 373.764V387.865H370.173C370.27 387.865 370.365 387.873 370.458 387.888C371.563 385.346 374.094 383.568 377.04 383.568C381.003 383.568 384.215 386.784 384.215 390.749C384.215 394.715 381.003 397.932 377.04 397.932C373.266 397.932 370.172 395.012 369.887 391.307H358.638V405.524L370.39 417.194C371.642 416.125 373.267 415.48 375.042 415.48C379.003 415.48 382.217 418.696 382.217 422.662C382.217 426.628 379.003 429.843 375.042 429.843C371.079 429.843 367.867 426.628 367.867 422.662C367.867 421.733 368.043 420.845 368.363 420.031L355.707 407.463C355.382 407.14 355.199 406.7 355.199 406.241V373.067C355.199 372.62 355.372 372.19 355.683 371.869L367.679 359.477C367.115 358.451 366.793 357.272 366.793 356.018ZM371.305 422.662C371.305 420.597 372.979 418.922 375.042 418.922C377.104 418.922 378.778 420.597 378.778 422.662C378.778 424.727 377.104 426.401 375.042 426.401C372.978 426.401 371.305 424.727 371.305 422.662ZM377.04 387.01C374.978 387.01 373.305 388.685 373.305 390.749C373.305 392.815 374.979 394.49 377.04 394.49C379.103 394.49 380.776 392.815 380.776 390.749C380.776 388.685 379.104 387.01 377.04 387.01ZM430.576 354.073C428.108 354.073 426.107 356.076 426.107 358.544C426.107 361.015 428.109 363.018 430.576 363.018C433.042 363.018 435.044 361.015 435.044 358.544C435.044 356.076 433.043 354.073 430.576 354.073ZM422.669 358.544C422.669 354.174 426.21 350.631 430.576 350.631C434.941 350.631 438.483 354.174 438.483 358.544C438.483 362.915 434.942 366.46 430.576 366.46C429.734 366.46 428.923 366.328 428.162 366.084L419.614 382.84L435.092 397.184C435.749 397.794 435.829 398.806 435.274 399.511L422.236 416.089C425.597 417.001 428.071 420.075 428.071 423.728C428.071 428.099 424.53 431.643 420.164 431.643C415.797 431.643 412.257 428.099 412.257 423.728C412.257 420.185 414.584 417.186 417.79 416.177L431.591 398.63L416.322 384.48C415.758 383.957 415.609 383.121 415.959 382.435L425.19 364.34C423.639 362.895 422.669 360.833 422.669 358.544ZM420.164 419.256C417.696 419.256 415.695 421.259 415.695 423.728C415.695 426.198 417.697 428.201 420.164 428.201C422.63 428.201 424.632 426.198 424.632 423.728C424.632 421.259 422.631 419.256 420.164 419.256Z" fill="#00FF74"></path></svg>